<svg width="160" height="42" viewBox="0 0 160 42" fill="none" xmlns="http://www.w3.org/2000/svg" data-logo="true"><g clip-path="url(#logo__a)"><path d="M69.71 22.352v9.12h-2.9v-8.734c0-2.836-1.869-3.772-3.449-3.772-1.58 0-3.417.936-3.417 3.772v8.735h-2.901v-8.735c0-2.836-1.869-3.772-3.48-3.772-1.61 0-3.417.936-3.417 3.772v8.735h-2.901V16.646h2.901v1.772c1.063-1.387 2.674-2 4.254-2 1.868 0 3.803.71 4.8 2.613 1.13-1.935 3.16-2.613 4.998-2.613 2.708 0 5.51 1.484 5.51 5.93l.003.003ZM87.469 16.65v14.826h-2.901v-2.289c-1.095 1.58-2.805 2.547-5.094 2.547-4.188 0-7.185-3.256-7.185-7.671 0-4.415 2.997-7.64 7.185-7.64 2.289 0 3.996.967 5.094 2.512v-2.288h2.901v.003Zm-2.901 7.413c0-2.867-1.869-4.897-4.705-4.897-2.835 0-4.739 2.03-4.739 4.897 0 2.867 1.87 4.932 4.74 4.932s4.704-2.096 4.704-4.932ZM98.65 16.423v2.74c-2 .03-5.22.9-5.22 4.704v7.605h-2.902V16.646h2.902v2.74c1.16-2.03 3.159-2.932 5.22-2.967v.004ZM100.746 31.476V10.524h2.932l-.031 20.949h-2.901v.003ZM105.953 24.063c0-4.48 3.125-7.702 7.606-7.702s7.54 3.224 7.54 7.702c0 4.477-3.094 7.702-7.54 7.702s-7.606-3.287-7.606-7.702Zm12.28 0c0-2.836-1.869-4.897-4.674-4.897-2.805 0-4.705 2.061-4.705 4.897 0 2.836 1.869 4.932 4.705 4.932 2.836 0 4.674-2.127 4.674-4.932ZM144.281 16.65l-4.931 14.826h-2.867l-3.48-10.249-3.513 10.249h-2.867l-4.866-14.826h3.028l3.448 10.734 3.738-10.734h2.127l3.675 10.734 3.48-10.734h3.028ZM159.245 24.063v.836h-11.667c.289 2.643 2.158 4.35 4.739 4.35 2.127 0 3.479-.967 4.188-2l2.031 1.45c-1.291 1.868-3.514 3.063-6.219 3.063-4.512 0-7.54-3.287-7.54-7.703 0-4.415 2.901-7.67 7.347-7.67 4.447 0 7.124 3.255 7.124 7.67l-.003.004ZM147.578 23h8.958c-.354-2.482-1.934-4.289-4.415-4.289s-4.188 1.707-4.543 4.289Z" fill="var(--text-color,#1C1C1C)"></path><path d="M21.217 1.748 18.185 0 0 10.5v21l.699.403 2.333 1.345L18.185 42l6.064-3.5v-21l-12.125-7-3.032 1.748 12.125 7v17.5L18.185 38.5 3.032 29.748v-17.5L18.185 3.5l15.156 8.748v21l3.032-1.748v-21L21.217 1.748Z" fill="#511CF7"></path><path d="m15.156 8.748 12.121 7v21L30.31 35V14L18.185 7l-3.029 1.748Z" fill="#511CF7"></path></g><defs><clipPath id="logo__a"><path fill="#fff" d="M0 0h159.245v42H0z"></path></clipPath></defs></svg>